<?xml version="1.0" encoding="UTF-8" standalone="no"?>
<!-- Generator: Adobe Illustrator 18.1.1, SVG Export Plug-In . SVG Version: 6.00 Build 0)  -->

<svg
   xmlns:dc="http://purl.org/dc/elements/1.1/"
   xmlns:cc="http://creativecommons.org/ns#"
   xmlns:rdf="http://www.w3.org/1999/02/22-rdf-syntax-ns#"
   xmlns:svg="http://www.w3.org/2000/svg"
   xmlns="http://www.w3.org/2000/svg"
   xmlns:sodipodi="http://sodipodi.sourceforge.net/DTD/sodipodi-0.dtd"
   xmlns:inkscape="http://www.inkscape.org/namespaces/inkscape"
   version="1.1"
   id="Layer_1"
   x="0px"
   y="0px"
   viewBox="0 0 300 113.9"
   enable-background="new 0 0 300 113.9"
   xml:space="preserve"
   inkscape:version="0.91 r13725"
   sodipodi:docname="acquia-logo-think-ahead-white-small.svg"><metadata
     id="metadata43"><rdf:RDF><cc:Work
         rdf:about=""><dc:format>image/svg+xml</dc:format><dc:type
           rdf:resource="http://purl.org/dc/dcmitype/StillImage" /><dc:title></dc:title></cc:Work></rdf:RDF></metadata><defs
     id="defs41" /><sodipodi:namedview
     pagecolor="#ffffff"
     bordercolor="#666666"
     borderopacity="1"
     objecttolerance="10"
     gridtolerance="10"
     guidetolerance="10"
     inkscape:pageopacity="0"
     inkscape:pageshadow="2"
     inkscape:window-width="1920"
     inkscape:window-height="1020"
     id="namedview39"
     showgrid="false"
     inkscape:zoom="1.3152186"
     inkscape:cx="-11.246922"
     inkscape:cy="129.87244"
     inkscape:window-x="1920"
     inkscape:window-y="0"
     inkscape:window-maximized="1"
     inkscape:current-layer="Layer_1" /><polygon
     style="fill:#ffffff;fill-opacity:1"
     id="polygon5"
     points="5.2,79.9 5.2,77.2 29.5,77.2 29.5,79.9 18.9,79.9 18.9,109.7 15.8,109.7 15.8,79.9 " /><polygon
     style="fill:#ffffff;fill-opacity:1"
     id="polygon7"
     points="36.4,94.3 36.4,109.7 33.6,109.7 33.6,77.2 36.4,77.2 36.4,91.5 56.9,91.5 56.9,77.2 59.6,77.2 59.6,109.7 56.9,109.7 56.9,94.3 " /><rect
     style="fill:#ffffff;fill-opacity:1"
     id="rect9"
     height="32.5"
     width="2.7"
     y="77.199997"
     x="66.400002" /><polygon
     style="fill:#ffffff;fill-opacity:1"
     id="polygon11"
     points="78.4,109.7 75.7,109.7 75.7,77.2 78.4,77.2 98.6,104.5 98.6,77.2 101.7,77.2 101.7,109.7 98.9,109.7 78.4,81.6 " /><polygon
     style="fill:#ffffff;fill-opacity:1"
     id="polygon13"
     points="110.9,98.4 110.9,109.7 108.2,109.7 108.2,77.2 110.9,77.2 110.9,95 126.6,77.2 130.1,77.2 116.4,92.6 131.4,109.7 127.7,109.7 114.3,94.3 " /><path
     style="fill:#ffffff;fill-opacity:1"
     inkscape:connector-curvature="0"
     id="path15"
     d="m 169.7,109.7 -3.1,-7.9 -17.1,0 -3.1,7.9 -3.1,0 13.3,-32.5 3.4,0 13.3,32.5 -3.6,0 z m -11.9,-29.4 -7.5,18.8 15.4,0 -7.9,-18.8 z" /><polygon
     style="fill:#ffffff;fill-opacity:1"
     id="polygon17"
     points="179,94.3 179,109.7 176.2,109.7 176.2,77.2 179,77.2 179,91.5 199.5,91.5 199.5,77.2 202.2,77.2 202.2,109.7 199.5,109.7 199.5,94.3 " /><polygon
     style="fill:#ffffff;fill-opacity:1"
     id="polygon19"
     points="229.3,77.2 229.3,79.9 211.5,79.9 211.5,91.9 228.9,91.9 228.9,94.3 211.5,94.3 211.5,106.9 229.3,106.9 229.3,109.7 208.7,109.7 208.7,77.2 " /><path
     style="fill:#ffffff;fill-opacity:1"
     inkscape:connector-curvature="0"
     id="path21"
     d="m 258.3,109.7 -3.1,-7.9 -17.1,0 -3.1,7.9 -3,0 13.3,-32.5 3.4,0 13.3,32.5 -3.7,0 z m -11.9,-29.4 -7.5,18.8 15.4,0 -7.9,-18.8 z" /><path
     style="fill:#ffffff;fill-opacity:1"
     inkscape:connector-curvature="0"
     id="path23"
     d="m 89.4,24 c 4.4,0 8.6,1.7 11.3,4.4 1,-3.1 2.7,-5.8 4.8,-8.6 C 101.1,16.4 95.6,14.3 89.4,14.3 75,14.4 63,26.1 63,40.8 c 0,14.4 11.6,26.3 26.3,26.3 6.2,0 11.6,-2.1 16.1,-5.5 -2.1,-2.7 -3.4,-5.5 -4.8,-8.6 -3.1,2.7 -6.8,4.4 -11.3,4.4 C 80.1,57.4 72.5,49.9 72.5,40.6 72.6,31.5 80.1,24 89.4,24 Z" /><path
     style="fill:#ffffff;fill-opacity:1"
     inkscape:connector-curvature="0"
     id="path25"
     d="m 35,4.8 c -1.7,0 -3.1,1 -3.8,2.4 l -26,57.8 10.3,0 3.8,-8.2 31.5,0 3.8,8.2 10.3,0 L 39.1,7.6 C 38.4,5.9 36.7,4.8 35,4.8 Z M 23.7,47.6 35.3,21.9 47,47.6 l -23.3,0 z" /><path
     style="fill:#ffffff;fill-opacity:1"
     inkscape:connector-curvature="0"
     id="path27"
     d="m 159.5,40.8 c 0,-14.4 -11.3,-25.7 -25.3,-26.3 -0.3,0 -0.7,0.3 -0.3,0.7 1,2.1 3.4,6.8 7.5,9.9 5.5,4.1 8.6,9.2 8.6,15.4 0,7.9 -6.2,16.8 -16.4,16.8 -10.3,0 -16.4,-8.9 -16.4,-16.8 0,-6.2 3.4,-11.3 8.6,-15.4 4.1,-3.4 6.8,-8.2 7.5,-10.3 0.3,-0.3 0,-0.7 -0.3,-0.7 -14.4,0.3 -25.7,12 -25.7,26.3 0,11.6 9.9,25.3 26,25.3 7.2,0 13.3,-2.1 17.8,-5.8 l 5.1,4.8 14.4,0 L 157.1,52 c 1.4,-3 2.4,-6.8 2.4,-11.2 z" /><rect
     style="fill:#ffffff;fill-opacity:1"
     id="rect29"
     height="49.599998"
     width="9.8999996"
     y="15.4"
     x="223.10001" /><path
     style="fill:#ffffff;fill-opacity:1"
     inkscape:connector-curvature="0"
     id="path31"
     d="m 203.9,40.4 c 0,10.3 -5.1,16.8 -13.7,16.8 -8.6,0 -13.7,-6.5 -13.7,-16.8 l 0,-25 -9.9,0 0,25 c 0,15 9.9,26 23.6,26 13.7,0 23.6,-10.9 23.6,-26 l 0,-25 -9.9,0 0,25 z" /><path
     style="fill:#ffffff;fill-opacity:1"
     inkscape:connector-curvature="0"
     id="path33"
     d="m 280.6,23.3 -2.1,-2.1 c -4.4,-4.8 -9.6,-7.2 -15.4,-7.2 -6.5,0 -12.3,2.4 -16.4,7.5 -4.4,4.8 -6.5,11.3 -6.5,18.5 0,7.5 2.4,14 6.5,18.8 4.4,4.8 10.3,7.5 16.8,7.5 5.5,0 10.3,-2.4 15,-6.5 l 1.7,-1.7 0,6.9 9.9,0 0,-49.6 -9.9,0 0,7.9 0.4,0 z m -3.8,29.8 c -3.1,3.4 -6.8,4.8 -11.6,4.8 -4.4,0 -8.2,-1.7 -10.9,-5.1 -2.7,-3.4 -4.1,-7.5 -4.1,-12.7 0,-4.8 1.4,-8.9 4.4,-12.3 3,-3.4 6.8,-5.1 10.9,-5.1 4.8,0 8.6,1.7 11.3,5.1 2.7,3.4 4.4,7.5 4.4,12.7 0,5 -1.3,9.2 -4.4,12.6 z" /><rect
     style="fill:#ffffff;fill-opacity:1"
     id="rect35"
     height="3.8"
     width="3.8"
     y="106.8"
     x="291.20001" /><path
     inkscape:connector-curvature="0"
     id="path37"
     d="m 264.8,109.9 0,-32.7 10.4,0 c 10.1,0 16.5,7.4 16.5,16.4 0,9.1 -6.4,16.3 -16.5,16.3 l -10.4,0 z m 24,-16.4 c 0,-7.6 -4.9,-13.8 -13.6,-13.8 l -7.6,0 0,27.6 7.6,0 c 8.7,0 13.6,-6.1 13.6,-13.8 z"
     style="opacity:1;fill:#ffffff;fill-opacity:1" /></svg>