<?xml version="1.0" encoding="UTF-8" standalone="no"?>
<!-- Generator: Adobe Illustrator 18.1.1, SVG Export Plug-In . SVG Version: 6.00 Build 0)  -->

<svg
   xmlns:dc="http://purl.org/dc/elements/1.1/"
   xmlns:cc="http://creativecommons.org/ns#"
   xmlns:rdf="http://www.w3.org/1999/02/22-rdf-syntax-ns#"
   xmlns:svg="http://www.w3.org/2000/svg"
   xmlns="http://www.w3.org/2000/svg"
   xmlns:sodipodi="http://sodipodi.sourceforge.net/DTD/sodipodi-0.dtd"
   xmlns:inkscape="http://www.inkscape.org/namespaces/inkscape"
   version="1.1"
   id="Layer_1"
   x="0px"
   y="0px"
   viewBox="0 0 289.3107 64.117423"
   enable-background="new 0 0 300 113.9"
   xml:space="preserve"
   inkscape:version="0.91 r13725"
   sodipodi:docname="acquia-logo-think-ahead-white-tiny.svg"
   width="289.3107"
   height="64.117424"><metadata
     id="metadata43"><rdf:RDF><cc:Work
         rdf:about=""><dc:format>image/svg+xml</dc:format><dc:type
           rdf:resource="http://purl.org/dc/dcmitype/StillImage" /><dc:title></dc:title></cc:Work></rdf:RDF></metadata><defs
     id="defs41" /><sodipodi:namedview
     pagecolor="#ffffff"
     bordercolor="#666666"
     borderopacity="1"
     objecttolerance="10"
     gridtolerance="10"
     guidetolerance="10"
     inkscape:pageopacity="0"
     inkscape:pageshadow="2"
     inkscape:window-width="1920"
     inkscape:window-height="1020"
     id="namedview39"
     showgrid="false"
     inkscape:zoom="3.72"
     inkscape:cx="191.20349"
     inkscape:cy="-1.3318148"
     inkscape:window-x="1920"
     inkscape:window-y="0"
     inkscape:window-maximized="1"
     inkscape:current-layer="Layer_1"
     fit-margin-top="0"
     fit-margin-left="0"
     fit-margin-right="0"
     fit-margin-bottom="0" /><path
     style="fill:#ffffff;fill-opacity:1"
     inkscape:connector-curvature="0"
     id="path23"
     d="m 85.218186,20.584034 c 4.4,0 8.6,1.7 11.3,4.4 1,-3.1 2.7,-5.8 4.800004,-8.6 -4.400004,-3.4 -9.900004,-5.5 -16.100004,-5.5 -14.4,0.1 -26.4,11.8 -26.4,26.5 0,14.4 11.6,26.3 26.3,26.3 6.2,0 11.6,-2.1 16.100004,-5.5 -2.100004,-2.7 -3.400004,-5.5 -4.800004,-8.6 -3.1,2.7 -6.8,4.4 -11.3,4.4 -9.2,0 -16.8,-7.5 -16.8,-16.8 0.1,-9.1 7.6,-16.6 16.9,-16.6 z" /><path
     style="fill:#ffffff;fill-opacity:1"
     inkscape:connector-curvature="0"
     id="path25"
     d="m 30.818186,1.3840337 c -1.7,0 -3.1,1 -3.8,2.4 L 1.0181858,61.584034 l 10.3000002,0 3.8,-8.2 31.5,0 3.8,8.2 10.3,0 -25.8,-57.4000003 c -0.7,-1.7 -2.4,-2.8 -4.1,-2.8 z m -11.3,42.8000003 11.6,-25.7 11.7,25.7 -23.3,0 z" /><path
     style="fill:#ffffff;fill-opacity:1"
     inkscape:connector-curvature="0"
     id="path27"
     d="m 155.31819,37.384034 c 0,-14.4 -11.3,-25.7 -25.3,-26.3 -0.3,0 -0.7,0.3 -0.3,0.7 1,2.1 3.4,6.8 7.5,9.9 5.5,4.1 8.6,9.2 8.6,15.4 0,7.9 -6.2,16.8 -16.4,16.8 -10.3,0 -16.4,-8.9 -16.4,-16.8 0,-6.2 3.4,-11.3 8.6,-15.4 4.1,-3.4 6.8,-8.2 7.5,-10.3 0.3,-0.3 0,-0.7 -0.3,-0.7 -14.4,0.3 -25.7,12 -25.7,26.3 0,11.6 9.9,25.3 26,25.3 7.2,0 13.3,-2.1 17.8,-5.8 l 5.1,4.8 14.4,0 -13.5,-12.7 c 1.4,-3 2.4,-6.8 2.4,-11.2 z" /><rect
     style="fill:#ffffff;fill-opacity:1"
     id="rect29"
     height="49.599998"
     width="9.8999996"
     y="11.984034"
     x="218.9182" /><path
     style="fill:#ffffff;fill-opacity:1"
     inkscape:connector-curvature="0"
     id="path31"
     d="m 199.71819,36.984034 c 0,10.3 -5.1,16.8 -13.7,16.8 -8.6,0 -13.7,-6.5 -13.7,-16.8 l 0,-25 -9.9,0 0,25 c 0,15 9.9,26 23.6,26 13.7,0 23.6,-10.9 23.6,-26 l 0,-25 -9.9,0 0,25 z" /><path
     style="fill:#ffffff;fill-opacity:1"
     inkscape:connector-curvature="0"
     id="path33"
     d="m 276.41819,19.884034 -2.1,-2.1 c -4.4,-4.8 -9.6,-7.2 -15.4,-7.2 -6.5,0 -12.3,2.4 -16.4,7.5 -4.4,4.8 -6.5,11.3 -6.5,18.5 0,7.5 2.4,14 6.5,18.8 4.4,4.8 10.3,7.5 16.8,7.5 5.5,0 10.3,-2.4 15,-6.5 l 1.7,-1.7 0,6.9 9.9,0 0,-49.6 -9.9,0 0,7.9 0.4,0 z m -3.8,29.8 c -3.1,3.4 -6.8,4.8 -11.6,4.8 -4.4,0 -8.2,-1.7 -10.9,-5.1 -2.7,-3.4 -4.1,-7.5 -4.1,-12.7 0,-4.8 1.4,-8.9 4.4,-12.3 3,-3.4 6.8,-5.1 10.9,-5.1 4.8,0 8.6,1.7 11.3,5.1 2.7,3.4 4.4,7.5 4.4,12.7 0,5 -1.3,9.2 -4.4,12.6 z" /></svg>