<?xml version="1.0" encoding="utf-8"?>
<!-- Generator: Adobe Illustrator 18.1.1, SVG Export Plug-In . SVG Version: 6.00 Build 0)  -->
<svg version="1.1" id="Layer_1" xmlns="http://www.w3.org/2000/svg" xmlns:xlink="http://www.w3.org/1999/xlink" x="0px" y="0px"
	 viewBox="0 0 300 113.9" enable-background="new 0 0 300 113.9" xml:space="preserve">
<g>
	<polygon fill="#010101" points="15.8,109.7 15.8,79.9 5.2,79.9 5.2,77.2 29.5,77.2 29.5,79.9 18.9,79.9 18.9,109.7 	"/>
	<polygon fill="#010101" points="56.9,109.7 56.9,94.3 36.4,94.3 36.4,109.7 33.6,109.7 33.6,77.2 36.4,77.2 36.4,91.5 56.9,91.5 
		56.9,77.2 59.6,77.2 59.6,109.7 	"/>
	<rect x="66.4" y="77.2" fill="#010101" width="2.7" height="32.5"/>
	<polygon fill="#010101" points="98.9,109.7 78.4,81.6 78.4,109.7 75.7,109.7 75.7,77.2 78.4,77.2 98.6,104.5 98.6,77.2 101.7,77.2 
		101.7,109.7 	"/>
	<polygon fill="#010101" points="127.7,109.7 114.3,94.3 110.9,98.4 110.9,109.7 108.2,109.7 108.2,77.2 110.9,77.2 110.9,95 
		126.6,77.2 130.1,77.2 116.4,92.6 131.4,109.7 	"/>
	<path fill="#010101" d="M169.7,109.7l-3.1-7.9h-17.1l-3.1,7.9h-3.1l13.3-32.5h3.4l13.3,32.5H169.7z M157.8,80.3l-7.5,18.8h15.4
		L157.8,80.3z"/>
	<polygon fill="#010101" points="199.5,109.7 199.5,94.3 179,94.3 179,109.7 176.2,109.7 176.2,77.2 179,77.2 179,91.5 199.5,91.5 
		199.5,77.2 202.2,77.2 202.2,109.7 	"/>
	<polygon fill="#010101" points="208.7,109.7 208.7,77.2 229.3,77.2 229.3,79.9 211.5,79.9 211.5,91.9 228.9,91.9 228.9,94.3 
		211.5,94.3 211.5,106.9 229.3,106.9 229.3,109.7 	"/>
	<path fill="#010101" d="M258.3,109.7l-3.1-7.9h-17.1l-3.1,7.9H232l13.3-32.5h3.4l13.3,32.5H258.3z M246.4,80.3l-7.5,18.8h15.4
		L246.4,80.3z"/>
	<path fill="#34A6DE" d="M89.4,24c4.4,0,8.6,1.7,11.3,4.4c1-3.1,2.7-5.8,4.8-8.6c-4.4-3.4-9.9-5.5-16.1-5.5C75,14.4,63,26.1,63,40.8
		c0,14.4,11.6,26.3,26.3,26.3c6.2,0,11.6-2.1,16.1-5.5c-2.1-2.7-3.4-5.5-4.8-8.6c-3.1,2.7-6.8,4.4-11.3,4.4
		c-9.2,0-16.8-7.5-16.8-16.8C72.6,31.5,80.1,24,89.4,24z"/>
	<path fill="#34A6DE" d="M35,4.8c-1.7,0-3.1,1-3.8,2.4L5.2,65h10.3l3.8-8.2h31.5l3.8,8.2h10.3L39.1,7.6C38.4,5.9,36.7,4.8,35,4.8z
		 M23.7,47.6l11.6-25.7L47,47.6H23.7z"/>
	<path fill="#34A6DE" d="M159.5,40.8c0-14.4-11.3-25.7-25.3-26.3c-0.3,0-0.7,0.3-0.3,0.7c1,2.1,3.4,6.8,7.5,9.9
		c5.5,4.1,8.6,9.2,8.6,15.4c0,7.9-6.2,16.8-16.4,16.8c-10.3,0-16.4-8.9-16.4-16.8c0-6.2,3.4-11.3,8.6-15.4c4.1-3.4,6.8-8.2,7.5-10.3
		c0.3-0.3,0-0.7-0.3-0.7c-14.4,0.3-25.7,12-25.7,26.3c0,11.6,9.9,25.3,26,25.3c7.2,0,13.3-2.1,17.8-5.8l5.1,4.8h14.4L157.1,52
		C158.5,49,159.5,45.2,159.5,40.8z"/>
	<rect x="223.1" y="15.4" fill="#34A6DE" width="9.9" height="49.6"/>
	<path fill="#34A6DE" d="M203.9,40.4c0,10.3-5.1,16.8-13.7,16.8c-8.6,0-13.7-6.5-13.7-16.8v-25h-9.9v25c0,15,9.9,26,23.6,26
		c13.7,0,23.6-10.9,23.6-26v-25h-9.9V40.4z"/>
	<path fill="#34A6DE" d="M280.6,23.3l-2.1-2.1c-4.4-4.8-9.6-7.2-15.4-7.2c-6.5,0-12.3,2.4-16.4,7.5c-4.4,4.8-6.5,11.3-6.5,18.5
		c0,7.5,2.4,14,6.5,18.8c4.4,4.8,10.3,7.5,16.8,7.5c5.5,0,10.3-2.4,15-6.5l1.7-1.7V65h9.9V15.4h-9.9v7.9H280.6z M276.8,53.1
		c-3.1,3.4-6.8,4.8-11.6,4.8c-4.4,0-8.2-1.7-10.9-5.1c-2.7-3.4-4.1-7.5-4.1-12.7c0-4.8,1.4-8.9,4.4-12.3s6.8-5.1,10.9-5.1
		c4.8,0,8.6,1.7,11.3,5.1s4.4,7.5,4.4,12.7C281.2,45.5,279.9,49.7,276.8,53.1z"/>
	<rect x="291.2" y="106.8" fill="#010101" width="3.8" height="3.8"/>
	<path d="M264.8,109.9V77.2h10.4c10.1,0,16.5,7.4,16.5,16.4c0,9.1-6.4,16.3-16.5,16.3H264.8z M288.8,93.5c0-7.6-4.9-13.8-13.6-13.8
		h-7.6v27.6h7.6C283.9,107.3,288.8,101.2,288.8,93.5z"/>
</g>
</svg>
